<svg xmlns="http://www.w3.org/2000/svg" width="837.158" height="367.432" viewBox="0 0 837.158 367.432">
  <path id="Контур_2" data-name="Контур 2" d="M-152.954-82.031h-52.979V0h-38.818V-82.031H-418.335v-35.4L-248.9-358.887h42.969V-118.9h52.979Zm-91.8-36.865V-237.549q0-34.912,2.441-78.857h-1.953a366.858,366.858,0,0,1-21.973,38.818L-377.808-118.9Zm362.793-60.059q0,92.529-29.175,138.184T-.366,4.883q-57.617,0-87.646-46.753t-30.029-137.085q0-93.262,29.053-138.428T-.366-362.549q58.105,0,88.257,47.119T118.042-178.955Zm-195.068,0q0,77.881,18.311,113.4T-.366-30.029q40.527,0,58.716-36.011T76.538-178.955q0-76.9-18.188-112.671T-.366-327.393q-40.039,0-58.35,35.278T-77.026-178.955Zm495.85,96.924H365.845V0H327.026V-82.031H153.442v-35.4L322.876-358.887h42.969V-118.9h52.979Zm-91.8-36.865V-237.549q0-34.912,2.441-78.857h-1.953a366.858,366.858,0,0,1-21.973,38.818L193.97-118.9Z" transform="translate(418.335 362.549)" fill="#e9ecef" opacity="0.75"/>
</svg>
