<svg id="Icons_Dark_Profile_Copy_2" data-name="Icons/Dark/Profile Copy 2" xmlns="http://www.w3.org/2000/svg" width="20" height="20" viewBox="0 0 20 20">
  <g id="icons8-gear" transform="translate(1.875 1.875)">
    <path id="Shape" d="M8.125,16.25a.626.626,0,0,1-.625-.625v-.107a.613.613,0,0,0-.5-.61c-.137-.022-.28-.05-.425-.083a.582.582,0,0,0-.129-.015.625.625,0,0,0-.568.388l-.041.1a.625.625,0,1,1-1.155-.48l.042-.1a.619.619,0,0,0-.232-.759c-.12-.074-.241-.155-.361-.24a.583.583,0,0,0-.341-.108.635.635,0,0,0-.446.187l-.077.075a.625.625,0,1,1-.884-.884l.076-.075a.619.619,0,0,0,.077-.789c-.081-.113-.159-.231-.239-.361a.6.6,0,0,0-.516-.279.634.634,0,0,0-.244.048l-.1.042a.625.625,0,1,1-.479-1.155l.1-.042a.611.611,0,0,0,.372-.7c-.029-.126-.056-.265-.082-.425A.617.617,0,0,0,.732,8.75H.625a.625.625,0,0,1,0-1.25H.732a.616.616,0,0,0,.611-.505c.022-.138.049-.277.083-.425a.611.611,0,0,0-.373-.7l-.1-.04a.625.625,0,0,1,.48-1.155l.1.042a.632.632,0,0,0,.243.048.6.6,0,0,0,.516-.281c.075-.121.156-.242.239-.359a.612.612,0,0,0-.077-.789l-.075-.075a.625.625,0,1,1,.884-.884l.075.075a.636.636,0,0,0,.446.186.585.585,0,0,0,.343-.109c.117-.083.238-.164.359-.239a.616.616,0,0,0,.231-.758l-.042-.1A.625.625,0,1,1,5.831.957l.042.1a.624.624,0,0,0,.567.387.584.584,0,0,0,.13-.015c.128-.029.267-.056.425-.082A.617.617,0,0,0,7.5.732V.625a.625.625,0,0,1,1.25,0V.732a.615.615,0,0,0,.5.611c.137.022.28.05.425.083a.581.581,0,0,0,.129.015.625.625,0,0,0,.568-.388l.042-.1a.625.625,0,1,1,1.155.48l-.042.1a.619.619,0,0,0,.231.759c.121.075.242.156.36.24a.585.585,0,0,0,.342.108.636.636,0,0,0,.447-.187l.076-.076a.625.625,0,1,1,.884.884l-.077.075a.619.619,0,0,0-.076.789c.076.106.152.221.239.36a.6.6,0,0,0,.516.28.633.633,0,0,0,.243-.048l.1-.042a.625.625,0,1,1,.478,1.155l-.1.042a.611.611,0,0,0-.372.7c.03.131.057.27.082.425a.618.618,0,0,0,.613.505h.107a.625.625,0,0,1,0,1.25h-.107a.613.613,0,0,0-.61.5c-.022.137-.05.28-.083.425a.611.611,0,0,0,.373.7l.1.04a.625.625,0,0,1-.48,1.155l-.1-.042a.632.632,0,0,0-.243-.048.6.6,0,0,0-.516.28c-.075.121-.156.242-.24.36a.61.61,0,0,0,.078.787l.075.077a.625.625,0,1,1-.884.884l-.075-.077a.636.636,0,0,0-.446-.185.586.586,0,0,0-.343.109c-.107.076-.225.154-.361.239a.62.62,0,0,0-.231.759l.042.1a.625.625,0,1,1-1.155.478l-.042-.1a.624.624,0,0,0-.567-.387.584.584,0,0,0-.13.015c-.13.03-.269.056-.425.082a.618.618,0,0,0-.505.613v.107A.626.626,0,0,1,8.125,16.25ZM9.911,9.871h0a2.492,2.492,0,0,1-1.167.668.631.631,0,0,1,.006.087v2.457A4.954,4.954,0,0,0,12.1,11.144L9.978,9.916a.617.617,0,0,1-.068-.045Zm-3.571,0h0a.617.617,0,0,1-.068.045L4.146,11.144A5.019,5.019,0,0,0,7.5,13.082V10.625a.632.632,0,0,1,.006-.087,2.493,2.493,0,0,1-1.167-.668Zm6.4-3.686L10.6,7.416a.665.665,0,0,1-.079.043,2.24,2.24,0,0,1,0,1.335.634.634,0,0,1,.08.04l2.131,1.231a5.015,5.015,0,0,0,0-3.88Zm-9.219,0a5.015,5.015,0,0,0,0,3.88L5.647,8.834a.63.63,0,0,1,.08-.04,2.246,2.246,0,0,1,0-1.337.582.582,0,0,1-.079-.041Zm4.609,1a.937.937,0,1,0,.938.937A.938.938,0,0,0,8.125,7.188Zm.625-4.02V5.625a.743.743,0,0,1-.005.087,2.494,2.494,0,0,1,1.163.665.594.594,0,0,1,.07-.043L12.1,5.106A4.954,4.954,0,0,0,8.75,3.168Zm-1.25,0A5.019,5.019,0,0,0,4.146,5.106L6.272,6.334a.594.594,0,0,1,.07.043,2.493,2.493,0,0,1,1.164-.665A.631.631,0,0,1,7.5,5.625Z" fill="#526484"/>
  </g>
</svg>
