<svg xmlns="http://www.w3.org/2000/svg" width="59.649" height="26.895" viewBox="0 0 59.649 26.895">
  <g id="Сгруппировать_114" data-name="Сгруппировать 114" transform="translate(7475.5 -1627.5)">
    <g id="Fill_2" data-name="Fill 2" transform="translate(-7475.5 1627.5)">
      <path id="Fill_1" data-name="Fill 1" d="M56.666.09,49.594,2.048a1.184,1.184,0,0,0-.514,1.976l2.31,2.31L36.611,21.105a4.1,4.1,0,0,1-5.79,0L22.166,12.45a6.833,6.833,0,0,0-9.649,0L0,24.968,1.928,26.9,14.445,14.381a4.1,4.1,0,0,1,5.79,0L28.9,23.036a6.833,6.833,0,0,0,9.649,0L53.318,8.261l2.314,2.314A1.181,1.181,0,0,0,57.6,10.05l1.958-7.069A2.348,2.348,0,0,0,56.666.09" transform="translate(0 0)" fill="#fefefe"/>
    </g>
  </g>
</svg>
