<svg xmlns="http://www.w3.org/2000/svg" xmlns:xlink="http://www.w3.org/1999/xlink" width="59.197" height="60.083" viewBox="0 0 59.197 60.083">
  <defs>
    <clipPath id="clip-path">
      <path id="Clip_2" data-name="Clip 2" d="M0,0H59.2V60.083H0Z" fill="none"/>
    </clipPath>
  </defs>
  <g id="Icon" transform="translate(7922.5 -1626.5)">
    <g id="Group_3" data-name="Group 3" transform="translate(-7922.5 1626.5)">
      <path id="Clip_2-2" data-name="Clip 2" d="M0,0H59.2V60.083H0Z" fill="none"/>
      <g id="Group_3-2" data-name="Group 3" clip-path="url(#clip-path)">
        <path id="Fill_1" data-name="Fill 1" d="M45.06,60.083a5.3,5.3,0,1,1,5.3-5.3A5.307,5.307,0,0,1,45.06,60.083Zm0-8.837A3.534,3.534,0,1,0,48.6,54.78,3.538,3.538,0,0,0,45.06,51.246ZM5.3,54.78a5.3,5.3,0,1,1,5.3-5.3A5.306,5.306,0,0,1,5.3,54.78Zm0-8.834A3.534,3.534,0,1,0,8.837,49.48,3.538,3.538,0,0,0,5.3,45.946Zm36.166,4.068h0l-.308-.057-.537-.577.138-.778.708-.357.306.055.54.58-.138.78-.708.354Zm-11.426-2.3A17.662,17.662,0,0,1,16.665,41.56l-.02.1-.708.355-.306-.055-.54-.577.138-.78.491-.246a17.59,17.59,0,0,1,1.708-22.674l-.42-.445.14-.778.708-.357.306.055.42.451A17.686,17.686,0,0,1,23.83,13.5a17.637,17.637,0,0,1,19.421,4.811h0l.14-.783.708-.351.306.054.543.577-.14.78-.708.355-.306-.055-.534-.567A17.666,17.666,0,0,1,30.04,47.712Zm-4.414-7.5a32.545,32.545,0,0,0-5.54,2.229A15.89,15.89,0,0,0,40,42.44a32.521,32.521,0,0,0-5.54-2.229v1.54l-.117.206a5.288,5.288,0,0,1-8.6,0l-.117-.206Zm1.763-.434v1.431A2.841,2.841,0,0,0,30.04,42.4a2.85,2.85,0,0,0,2.651-1.189V39.777a6.919,6.919,0,0,1-1.189.377,2.45,2.45,0,0,1-1.462.489,2.481,2.481,0,0,1-1.463-.489A7.021,7.021,0,0,1,27.389,39.777Zm11.117-7.083a1.744,1.744,0,0,1-1.577,1.674,7.172,7.172,0,0,1-2.186,4.081,31.061,31.061,0,0,1,6.638,2.745,15.9,15.9,0,1,0-22.677,0,30.83,30.83,0,0,1,6.643-2.745,7.209,7.209,0,0,1-2.206-4.2,1.75,1.75,0,0,1-1.562-1.668v.031c0,.019,0,.032,0,.038a.025.025,0,0,1,0-.012.925.925,0,0,0-.025-.124c-.019-.072-.046-.159-.077-.261l0-.005-.045-.149c-.017-.06-.035-.119-.053-.18a3,3,0,0,1-.167-.934.89.89,0,0,1,.175-.469A1.918,1.918,0,0,0,21.5,30.3a12.6,12.6,0,0,1-.294-2.971,3.11,3.11,0,0,0-1.343-2.714l-.929-.562.742-.8A16.837,16.837,0,0,1,22.486,20.9,12.778,12.778,0,0,1,29.4,18.554a6.583,6.583,0,0,1,3.766,1.037,2.389,2.389,0,0,1,.712.679c.027.038.054.075.083.113a5.444,5.444,0,0,1,2.946,1.068,5.13,5.13,0,0,1,1.968,4.171c0,1.782-.272,4.762-.274,4.792l-.023,0a1.89,1.89,0,0,0,.122.222.886.886,0,0,1,.175.467,3.006,3.006,0,0,1-.178.967c-.016.05-.031.1-.045.147-.021.073-.041.144-.06.21-.024.082-.044.152-.06.209a.883.883,0,0,0-.025.122c0,.008,0,.014,0,.016a.311.311,0,0,1,0-.045ZM23.129,30.86c-.073.028-.155.06-.157.12a.549.549,0,0,1,.021.089c.025.116.071.333.13.528.016.057.033.115.051.172.028.093.056.189.081.282.008.028.016.054.023.08a1.289,1.289,0,0,1,.066.44.16.16,0,0,0,.037,0h1.343l.025.854a5.316,5.316,0,0,0,4.358,5.035l.248.045.188.169a.722.722,0,0,0,1,0l.189-.169.251-.045a5.271,5.271,0,0,0,4.352-4.935l.043-.837H36.7a.133.133,0,0,0,.037,0,1.277,1.277,0,0,1,.065-.439c.008-.026.016-.053.024-.081.025-.093.053-.189.081-.282.017-.058.034-.115.051-.172.059-.195.1-.413.128-.53a.831.831,0,0,1,.019-.086c0-.056-.071-.086-.139-.114l-.015-.006c-.061.032-.149.079-.277.154l-1.334.795V28.788a3.4,3.4,0,0,0-1.02-2.649,1.659,1.659,0,0,0-.613-.423l-.067-.028c-.055.041-.1.078-.146.115a2.789,2.789,0,0,1-.728.437,10.235,10.235,0,0,1-4.275.854,4.816,4.816,0,0,0-2.377.8,2.85,2.85,0,0,0-1.372,2.385l-.037,1.5-1.292-.754c-.1-.058-.179-.1-.25-.141Zm.065-1.82a.172.172,0,0,1,.089.015.126.126,0,0,0,.039.013,4.957,4.957,0,0,1,1.792-2.631,6.149,6.149,0,0,1,3.379-1.111,8.487,8.487,0,0,0,3.537-.692,3.7,3.7,0,0,0,1.006-.606l.382-.371.512.168a4.952,4.952,0,0,1,1.62,1.046,5.455,5.455,0,0,1,1.414,3.217l.052-.682c.051-.638.091-1.141.091-1.784a3.183,3.183,0,0,0-1.266-2.763,4.081,4.081,0,0,0-2.268-.771h-.511l-.255-.44a1.966,1.966,0,0,0-.632-.6,4.87,4.87,0,0,0-2.774-.728c-3.478,0-6.36,2.254-7.769,3.6a4.641,4.641,0,0,1,1.337,3.406,6.264,6.264,0,0,0,.128,1.588c.011.051.022.1.032.152a.069.069,0,0,0,.028-.012A.064.064,0,0,1,23.194,29.04ZM39.543,47.051h0l-.312-.057-.54-.577.143-.78.709-.355.3.055.543.58-.143.778-.7.356Zm-29.16-.662h0l-.308-.058-.54-.577.142-.777.707-.357.305.054.54.58-.139.777-.705.357ZM13.16,44.2h0l-.308-.054-.54-.58.14-.78.708-.355.306.058.54.577-.137.777-.709.357ZM32.692,32.692a.883.883,0,1,1,.883-.883A.883.883,0,0,1,32.692,32.692Zm-5.3,0a.883.883,0,1,1,.886-.883A.884.884,0,0,1,27.389,32.692Zm19.4-16.043h0l-.3-.051-.54-.58.137-.78.708-.354.309.054.543.58-.142.78-.709.351ZM15.514,15.229h0l-.308-.055-.537-.577.135-.78.711-.354.306.054.54.58-.138.778-.708.354ZM53.9,15.02a5.264,5.264,0,0,1-3.629-1.452L50.186,14l-.706.354-.309-.054-.54-.577.139-.78.686-.343A5.3,5.3,0,1,1,53.9,15.02Zm0-8.834A3.534,3.534,0,1,0,57.432,9.72,3.538,3.538,0,0,0,53.9,6.186Zm-40.729,6.4h0l-.308-.051-.54-.581.139-.779.709-.355.309.054.536.58-.137.779-.708.352ZM7.952,10.6a5.322,5.322,0,1,1,3.663-1.48l-.083.463-.709.354L10.58,9.9A5.3,5.3,0,0,1,7.952,10.6Zm0-8.837A3.534,3.534,0,1,0,11.486,5.3,3.538,3.538,0,0,0,7.952,1.766Z" transform="translate(0 0)" fill="#fefefe"/>
      </g>
    </g>
  </g>
</svg>
