<svg xmlns="http://www.w3.org/2000/svg" xmlns:xlink="http://www.w3.org/1999/xlink" width="57.573" height="47.645" viewBox="0 0 57.573 47.645">
  <defs>
    <clipPath id="clip-path">
      <path id="Clip_2" data-name="Clip 2" d="M0,0H57.573V39.706H0Z" transform="translate(0 1.202)" fill="none"/>
    </clipPath>
    <clipPath id="clip-path-2">
      <path id="Clip_5" data-name="Clip 5" d="M0,0H25.8V21.836H0Z" transform="translate(2.248 1.445)" fill="none"/>
    </clipPath>
  </defs>
  <g id="Group_7" data-name="Group 7" transform="translate(0 -2.728)">
    <g id="Group_3" data-name="Group 3" transform="translate(0 9.464)">
      <path id="Clip_2-2" data-name="Clip 2" d="M0,0H57.573V39.706H0Z" transform="translate(0 1.202)" fill="none"/>
      <g id="Group_3-2" data-name="Group 3" clip-path="url(#clip-path)">
        <path id="Fill_1" data-name="Fill 1" d="M55.59,39.706H39.706a1.988,1.988,0,0,1-1.985-1.985V33.75a1.979,1.979,0,0,1,1.92-1.98l-.5-1.991-.5-1.985-1.533-6.125a3.854,3.854,0,0,1,3.728-4.792c.054,0,.108,0,.162,0a3.847,3.847,0,0,1,2.781,1.341L47.015,22a.124.124,0,0,0,.093.038l.028,0a.109.109,0,0,0,.087-.089L50.7,6.949h-.073V3.475a3.474,3.474,0,1,1,6.949,0V28.939a3.193,3.193,0,0,1-.944,2.272l-.608.606a2,2,0,0,1,1.553,1.933v3.971A1.988,1.988,0,0,1,55.59,39.706ZM53.6,33.75v3.971H55.59V33.75Zm-13.9,0v3.971H51.617V33.75Zm1.165-14.889a1.871,1.871,0,0,0-1.833,2.329l2.645,10.577H53.272l1.956-1.961a1.22,1.22,0,0,0,.363-.867V7.626c0-.78-.657-1.67-1.233-1.67H53.9a1.455,1.455,0,0,0-1.2,1.17L49.156,22.391a2.1,2.1,0,0,1-3.649.892l-3.235-3.769a1.834,1.834,0,0,0-1.347-.652ZM54.1,1.988A1.491,1.491,0,0,0,52.61,3.475V4.3a2.864,2.864,0,0,1,1.287-.33h.461a2.675,2.675,0,0,1,1.233.311V3.475A1.49,1.49,0,0,0,54.1,1.988ZM17.872,39.706H1.988A1.989,1.989,0,0,1,0,37.721V33.75a1.977,1.977,0,0,1,1.552-1.933l-.608-.606A3.2,3.2,0,0,1,0,28.939V3.475a3.476,3.476,0,0,1,6.952,0V6.949H6.878l3.478,14.995a.107.107,0,0,0,.087.085.14.14,0,0,0,.032,0A.119.119,0,0,0,10.559,22l3.233-3.775a3.863,3.863,0,0,1,2.785-1.341c.056,0,.114,0,.17,0a3.857,3.857,0,0,1,3.719,4.793l-1.533,6.125-.5,1.985-.5,1.991a1.978,1.978,0,0,1,1.918,1.98v3.971A1.986,1.986,0,0,1,17.872,39.706ZM5.962,33.75v3.971H17.872V33.75Zm-3.973,0v3.971H3.974V33.75ZM3.221,5.956c-.576,0-1.233.889-1.233,1.67V28.939a1.218,1.218,0,0,0,.36.867l1.958,1.961H15.895l2.642-10.577a1.881,1.881,0,0,0-.491-1.78,1.9,1.9,0,0,0-1.326-.549H16.65a1.846,1.846,0,0,0-1.35.652l-3.229,3.769A2.106,2.106,0,0,1,8.422,22.4L4.879,7.121a1.452,1.452,0,0,0-1.2-1.165Zm0-1.985h.461a2.839,2.839,0,0,1,1.284.33V3.475a1.489,1.489,0,0,0-2.978,0v.807A2.67,2.67,0,0,1,3.221,3.971Z" transform="translate(-0.002 1.202)" fill="#fefefe"/>
      </g>
    </g>
    <g id="Group_6" data-name="Group 6" transform="translate(13.636 1.283)">
      <path id="Clip_5-2" data-name="Clip 5" d="M0,0H25.8V21.836H0Z" transform="translate(2.248 1.445)" fill="none"/>
      <g id="Group_6-2" data-name="Group 6" clip-path="url(#clip-path-2)">
        <path id="Fill_4" data-name="Fill 4" d="M12.9,21.838C10.291,21.838,0,15.328,0,6.949A6.947,6.947,0,0,1,12.9,3.371,6.946,6.946,0,0,1,25.8,6.949C25.8,15.328,15.513,21.838,12.9,21.838ZM6.944,1.985A4.966,4.966,0,0,0,1.985,6.949c0,7.507,9.606,12.9,10.917,12.9s10.918-5.4,10.918-12.9A4.968,4.968,0,0,0,18.86,1.985a4.8,4.8,0,0,0-4.967,4.963H11.91a4.975,4.975,0,0,0-1.4-3.56A4.978,4.978,0,0,0,6.944,1.985Z" transform="translate(2.248 1.445)" fill="#fefefe"/>
      </g>
    </g>
  </g>
</svg>
