<svg xmlns="http://www.w3.org/2000/svg" xmlns:xlink="http://www.w3.org/1999/xlink" width="59.763" height="59.762" viewBox="0 0 59.763 59.762">
  <defs>
    <clipPath id="clip-path">
      <path id="Clip_2" data-name="Clip 2" d="M0,0H59.763V59.762H0Z" transform="translate(0 0.001)" fill="none"/>
    </clipPath>
  </defs>
  <g id="Сгруппировать_111" data-name="Сгруппировать 111" transform="translate(8371.5 -1995.501)">
    <g id="Group_3" data-name="Group 3" transform="translate(-8371.5 1995.5)">
      <path id="Clip_2-2" data-name="Clip 2" d="M0,0H59.763V59.762H0Z" transform="translate(0 0.001)" fill="none"/>
      <g id="Group_3-2" data-name="Group 3" clip-path="url(#clip-path)">
        <path id="Fill_1" data-name="Fill 1" d="M41.375,59.763a4.591,4.591,0,0,1-3.449-1.589,4.533,4.533,0,0,1-6.893,0,4.537,4.537,0,0,1-6.9,0,4.579,4.579,0,0,1-8.047-3.007v-.091A6.941,6.941,0,0,1,11.365,52.6a3.457,3.457,0,0,1-3.322,2.57h-4.6A3.452,3.452,0,0,1,0,51.716V26.431a3.451,3.451,0,0,1,3.445-3.449h4.6a3.446,3.446,0,0,1,2.577,1.181,8.055,8.055,0,0,1,6.619-3.479h3.351l1.333-3.316,1.771-4.424a5.654,5.654,0,0,1,2.574-2.858,3.218,3.218,0,0,1-.663-.934,3.343,3.343,0,0,1-.1-2.612L27.13,2.245A3.568,3.568,0,0,1,31.626.2l25.8,9a3.478,3.478,0,0,1,2.018,1.81,3.371,3.371,0,0,1,.1,2.615l-1.63,4.289a3.493,3.493,0,0,1-2.965,2.223.48.48,0,0,0,.039.067.483.483,0,0,1,.039.067,5.913,5.913,0,0,1,.2,4.557l-.164.451h.1A4.587,4.587,0,0,1,56.675,34.2a4.562,4.562,0,0,1-.8,6.022,4.558,4.558,0,0,1-1.5,7.769,4.595,4.595,0,0,1-3.806,7.174h-4.6a4.632,4.632,0,0,1-1.348,3.159A4.515,4.515,0,0,1,41.375,59.763Zm0-6.9a2.3,2.3,0,1,0,2.3,2.3A2.3,2.3,0,0,0,41.375,52.866Zm-6.9-2.3a2.3,2.3,0,0,0-2.293,2.3v2.3a2.3,2.3,0,0,0,4.592,0v-2.3A2.3,2.3,0,0,0,34.478,50.57Zm-6.89-1.153a2.3,2.3,0,0,0-2.3,2.3v3.451a2.3,2.3,0,0,0,4.6,0V51.716A2.3,2.3,0,0,0,27.588,49.417Zm-6.9,1.153a2.3,2.3,0,0,0-2.3,2.3v2.3a2.3,2.3,0,0,0,4.6,0v-2.3A2.3,2.3,0,0,0,20.687,50.57Zm20.687,0a5.069,5.069,0,0,1,3.956,2.3h5.236a2.3,2.3,0,0,0,0-4.6H41.375v-2.3H52.866a2.3,2.3,0,1,0,0-4.595H41.375v-2.3H52.866a2.3,2.3,0,1,0,0-4.6H41.375v-2.3H55.166a2.3,2.3,0,0,0,0-4.6H29.836l-3.606,9.9a5.746,5.746,0,1,1-10.8-3.932l4.235-10.566H17.239a5.756,5.756,0,0,0-5.747,5.751V47.119A5.765,5.765,0,0,0,16.1,52.752a4.563,4.563,0,0,1,7.547-3.372,4.56,4.56,0,0,1,7.876,0,4.519,4.519,0,0,1,2.956-1.111A4.6,4.6,0,0,1,38.8,51.362,4.558,4.558,0,0,1,41.375,50.57ZM3.445,25.281A1.15,1.15,0,0,0,2.3,26.431V51.716a1.15,1.15,0,0,0,1.147,1.15h4.6a1.151,1.151,0,0,0,1.149-1.15V26.431a1.151,1.151,0,0,0-1.149-1.15ZM29.031,11.65A3.476,3.476,0,0,0,25.826,13.8l-1.772,4.431-6.47,16.146a3.44,3.44,0,0,0,4.705,4.267A3.388,3.388,0,0,0,24.072,36.7l4.153-11.416h24.4l.451-1.238a3.6,3.6,0,0,0-.122-2.795,8.969,8.969,0,0,0-1.98-2.141L35.257,13.629l-.034.086L31.31,12.249l-1.4-.483A3.434,3.434,0,0,0,29.031,11.65ZM30.438,2.3a1.231,1.231,0,0,0-1.161.758l-1.624,4.3a1.055,1.055,0,0,0,.029.824,1.2,1.2,0,0,0,.7.613l2.346.821c.05.016.1.027.15.038a1.6,1.6,0,0,1,.176.047l1.067.4,22.061,7.7a1.324,1.324,0,0,0,.438.075,1.225,1.225,0,0,0,1.153-.763L57.4,12.814a1.06,1.06,0,0,0-.034-.828,1.181,1.181,0,0,0-.692-.609l-25.8-9.006A1.343,1.343,0,0,0,30.438,2.3Z" transform="translate(0 0)" fill="#fefefe"/>
      </g>
    </g>
  </g>
</svg>
