<svg xmlns="http://www.w3.org/2000/svg" xmlns:xlink="http://www.w3.org/1999/xlink" width="57.569" height="54.648" viewBox="0 0 57.569 54.648">
  <defs>
    <clipPath id="clip-path">
      <path id="Clip_6" data-name="Clip 6" d="M0,0H4.282V9.871H0Z" transform="translate(1.47 1.163)" fill="none"/>
    </clipPath>
    <clipPath id="clip-path-2">
      <path id="Clip_9" data-name="Clip 9" d="M0,0H43.355V54.648H0Z" transform="translate(0.001 2.624)" fill="none"/>
    </clipPath>
  </defs>
  <g id="Сгруппировать_112" data-name="Сгруппировать 112" transform="translate(7920.499 -1998.227)">
    <g id="Group_11" data-name="Group 11" transform="translate(-7920.5 1995.5)">
      <path id="Fill_1" data-name="Fill 1" d="M8.465,0a.755.755,0,0,0-.3.071A14.148,14.148,0,0,0,0,13.075,14.155,14.155,0,0,0,8.007,26a.815.815,0,0,0,1.1-.455.9.9,0,0,0-.431-1.162,12.367,12.367,0,0,1-7-11.3A12.361,12.361,0,0,1,8.812,1.7a.889.889,0,0,0,.5-1A.851.851,0,0,0,8.465,0" transform="translate(44.948 9.525)" fill="#fefefe"/>
      <path id="Fill_3" data-name="Fill 3" d="M5.94,0a.771.771,0,0,0-.3.074A9.715,9.715,0,0,0,0,9.025a9.727,9.727,0,0,0,5.474,8.869.8.8,0,0,0,.84-.09.908.908,0,0,0,.341-.813.885.885,0,0,0-.507-.709A7.953,7.953,0,0,1,1.666,9.025,7.957,7.957,0,0,1,6.281,1.7a.89.89,0,0,0,.51-1A.847.847,0,0,0,5.94,0" transform="translate(49.12 13.576)" fill="#fefefe"/>
      <g id="Group_7" data-name="Group 7" transform="translate(51.818 16.467)">
        <path id="Clip_6-2" data-name="Clip 6" d="M0,0H4.282V9.871H0Z" transform="translate(1.47 1.163)" fill="none"/>
        <g id="Group_7-2" data-name="Group 7" clip-path="url(#clip-path)">
          <path id="Fill_5" data-name="Fill 5" d="M3.423,0a.881.881,0,0,0-.3.074A5.29,5.29,0,0,0,0,4.969,5.3,5.3,0,0,0,2.943,9.778a.791.791,0,0,0,.848-.065.9.9,0,0,0,.352-.818.887.887,0,0,0-.507-.72,3.522,3.522,0,0,1-1.972-3.2A3.52,3.52,0,0,1,3.753,1.7a.893.893,0,0,0,.513-1A.848.848,0,0,0,3.423,0" transform="translate(1.47 1.163)" fill="#fefefe"/>
        </g>
      </g>
      <g id="Group_10" data-name="Group 10" transform="translate(0 0.104)">
        <path id="Clip_9-2" data-name="Clip 9" d="M0,0H43.355V54.648H0Z" transform="translate(0.001 2.624)" fill="none"/>
        <g id="Group_10-2" data-name="Group 10" clip-path="url(#clip-path-2)">
          <path id="Fill_8" data-name="Fill 8" d="M43.356,54.649H0V49.363c0-1.709.909-3.327,2.779-4.944a24.816,24.816,0,0,1,5.638-3.461c1.106-.527,2.144-.949,3.013-1.292H4.01l-.118-.736A117.137,117.137,0,0,1,2.5,24.684c0-7.746,1.634-13.827,4.857-18.074A15.982,15.982,0,0,1,13.412,1.7,19.467,19.467,0,0,1,21.679,0a8.642,8.642,0,0,1,5.7,1.958,4.957,4.957,0,0,1,1.312,1.534l.052.092a9.193,9.193,0,0,1,4.585,1.541,13.415,13.415,0,0,1,3.818,3.886,21.083,21.083,0,0,1,2.71,6.105,29.443,29.443,0,0,1,1,7.8A76.9,76.9,0,0,1,39.164,39L39,39.666H31.928c.936.372,1.949.787,3.01,1.292a24.836,24.836,0,0,1,5.638,3.461c1.87,1.615,2.779,3.232,2.779,4.944v5.285ZM15.84,39.957a54.793,54.793,0,0,0-6.745,2.6,23.911,23.911,0,0,0-5.258,3.229C2.419,47.009,1.67,48.244,1.67,49.363V52.89H41.689V49.363c0-1.117-.75-2.352-2.168-3.572a23.953,23.953,0,0,0-5.261-3.229,54.735,54.735,0,0,0-6.745-2.6v2.184l-.09.188a6.908,6.908,0,0,1-1.366,1.754,6.352,6.352,0,0,1-8.764,0A6.9,6.9,0,0,1,15.93,42.33l-.09-.188Zm11.623-24.8-.123.109a5.407,5.407,0,0,1-1.5.963,15.25,15.25,0,0,1-6.66,1.4,5.886,5.886,0,0,0-3.722,1.86,7.322,7.322,0,0,0-2.117,5.234v2.045c0,3.627,1.383,6.66,3.793,8.321l.377.259v6.305a4.5,4.5,0,0,0,4.17,2.417,4.451,4.451,0,0,0,4.167-2.417V35.351l.379-.259c2.41-1.663,3.792-4.7,3.792-8.321V21.158A8.067,8.067,0,0,0,28.541,16.1a2.861,2.861,0,0,0-1.011-.909Zm-.133-2.089h0l.509.224a6.043,6.043,0,0,1,1.983,1.69,9.749,9.749,0,0,1,1.863,6.178v5.612a11.73,11.73,0,0,1-4.17,9.445V37.9H37.663a70.029,70.029,0,0,0,1.525-14.983,23.533,23.533,0,0,0-3.408-12.892c-2.032-3.055-4.672-4.737-7.432-4.737h-.5l-.234-.469A5.178,5.178,0,0,0,26.34,3.335a7.041,7.041,0,0,0-4.661-1.573c-5.652,0-10.034,2-13.023,5.948C5.679,11.637,4.17,17.348,4.17,24.684A107.187,107.187,0,0,0,5.435,37.9h10.4V36.215a11.734,11.734,0,0,1-4.167-9.445V24.726a9.19,9.19,0,0,1,2.626-6.5,7.236,7.236,0,0,1,4.879-2.356,13.614,13.614,0,0,0,5.967-1.244,6.859,6.859,0,0,0,1.795-1.156l.39-.4Zm-1.067,12.5a1.325,1.325,0,1,1,1.252-1.32A1.288,1.288,0,0,1,26.264,25.563Zm-9.172,0a1.325,1.325,0,1,1,1.249-1.32A1.289,1.289,0,0,1,17.092,25.563Z" transform="translate(0.001 2.623)" fill="#fefefe"/>
        </g>
      </g>
    </g>
  </g>
</svg>
