<svg xmlns="http://www.w3.org/2000/svg" xmlns:xlink="http://www.w3.org/1999/xlink" width="59.761" height="59.765" viewBox="0 0 59.761 59.765">
  <defs>
    <clipPath id="clip-path">
      <path id="Clip_8" data-name="Clip 8" d="M0,0H42.524V36.779H0Z" transform="translate(1.45 1.115)" fill="none"/>
    </clipPath>
  </defs>
  <g id="Icon" transform="translate(8372.497 -1626.501)">
    <g id="Group_12" data-name="Group 12" transform="translate(-8372.5 1626.5)">
      <path id="Fill_1" data-name="Fill 1" d="M2.3,0A2.3,2.3,0,1,1,0,2.3,2.3,2.3,0,0,1,2.3,0" transform="translate(50.569 27.584)" fill="#fefefe"/>
      <path id="Fill_3" data-name="Fill 3" d="M2.3,0A2.3,2.3,0,1,1,0,2.3,2.3,2.3,0,0,1,2.3,0" transform="translate(4.595 27.584)" fill="#fefefe"/>
      <path id="Fill_5" data-name="Fill 5" d="M6.894,36.778a6.893,6.893,0,0,1-.13-13.784A24.1,24.1,0,0,1,27.581,5.864V2.457A2.449,2.449,0,0,1,31.134.263L40.01,4.694a2.464,2.464,0,0,1,0,4.4l-8.88,4.431a2.394,2.394,0,0,1-1.1.262,2.461,2.461,0,0,1-2.453-2.453V8.179A21.779,21.779,0,0,0,9.06,23.341,6.892,6.892,0,0,1,6.894,36.778Zm0-11.492a4.6,4.6,0,1,0,4.6,4.6A4.6,4.6,0,0,0,6.894,25.286ZM30.035,2.3a.17.17,0,0,0-.082.025.147.147,0,0,0-.069.132v8.88a.148.148,0,0,0,.069.132.161.161,0,0,0,.084.026.146.146,0,0,0,.07-.019l8.878-4.43a.162.162,0,0,0,.094-.148.155.155,0,0,0-.1-.148L30.108,2.318A.158.158,0,0,0,30.035,2.3Z" transform="translate(0.003 0.001)" fill="#fefefe"/>
      <g id="Group_9" data-name="Group 9" transform="translate(15.789 21.871)">
        <path id="Clip_8-2" data-name="Clip 8" d="M0,0H42.524V36.779H0Z" transform="translate(1.45 1.115)" fill="none"/>
        <g id="Group_9-2" data-name="Group 9" clip-path="url(#clip-path)">
          <path id="Fill_7" data-name="Fill 7" d="M11.34,36.78a2.52,2.52,0,0,1-1.1-.263l-8.87-4.43a2.462,2.462,0,0,1,0-4.409l8.873-4.43a2.481,2.481,0,0,1,1.1-.263,2.464,2.464,0,0,1,2.451,2.457v3.244A21.9,21.9,0,0,0,33.467,13.44a6.882,6.882,0,1,1,2.29.347,24.087,24.087,0,0,1-21.966,17.2v3.338A2.459,2.459,0,0,1,11.34,36.78Zm0-11.492a.139.139,0,0,0-.066.016L2.388,29.735a.155.155,0,0,0-.086.149.15.15,0,0,0,.088.148l8.877,4.431a.147.147,0,0,0,.069.018.164.164,0,0,0,.083-.024.143.143,0,0,0,.076-.132v-8.88a.145.145,0,0,0-.076-.132A.132.132,0,0,0,11.336,25.288ZM35.627,2.3a4.6,4.6,0,1,0,4.6,4.6A4.6,4.6,0,0,0,35.627,2.3Z" transform="translate(1.45 1.115)" fill="#fefefe"/>
        </g>
      </g>
      <path id="Fill_10" data-name="Fill 10" d="M10.348,13.791h-6.9A3.451,3.451,0,0,1,0,10.345v-6.9A3.453,3.453,0,0,1,3.449,0h6.9a3.451,3.451,0,0,1,3.445,3.449v6.9A3.449,3.449,0,0,1,10.348,13.791ZM3.449,2.3A1.15,1.15,0,0,0,2.3,3.449v6.9a1.149,1.149,0,0,0,1.147,1.149h6.9A1.151,1.151,0,0,0,11.5,10.345v-6.9A1.151,1.151,0,0,0,10.348,2.3Z" transform="translate(22.985 22.986)" fill="#fefefe"/>
    </g>
  </g>
</svg>
