<svg xmlns="http://www.w3.org/2000/svg" width="13.75" height="13.75" viewBox="0 0 13.75 13.75">
  <g id="Icons_16px_Active_Dashboard_Copy_2" data-name="Icons/16px/Active/Dashboard Copy 2" transform="translate(-3.125 -3.125)">
    <g id="icons8-goal" transform="translate(3.125 3.125)">
      <path id="Shape" d="M6.875,13.75A6.883,6.883,0,0,1,0,6.875,6.808,6.808,0,0,1,.558,4.169l.5.5a2.155,2.155,0,0,0,.338.274,5.763,5.763,0,0,0-.338,1.932A5.843,5.843,0,1,0,4.942,1.4a2.143,2.143,0,0,0-.273-.338l-.5-.5A6.808,6.808,0,0,1,6.875,0a6.875,6.875,0,1,1,0,13.75Zm0-2.115A4.747,4.747,0,0,1,2.4,5.273l.058.007a.714.714,0,0,0,.1.009h.492l.346.346A3.715,3.715,0,1,0,5.635,3.391l-.346-.346V2.553a.714.714,0,0,0-.009-.1c0-.019-.005-.039-.007-.058a4.714,4.714,0,0,1,1.6-.283,4.76,4.76,0,1,1,0,9.519Zm0-2.116A2.647,2.647,0,0,1,4.231,6.875a2.164,2.164,0,0,1,.03-.312l.007-.052L5.753,8A1.586,1.586,0,1,0,8,5.754L6.511,4.268l.051-.007a2.164,2.164,0,0,1,.312-.03,2.644,2.644,0,1,1,0,5.289Zm.008-2.107A.532.532,0,0,1,6.5,7.249L3.483,4.231h-.93a1.063,1.063,0,0,1-.748-.31L.641,2.757a.376.376,0,0,1,.265-.641h.461L.684,1.432A.529.529,0,1,1,1.432.684l.684.683V.907A.375.375,0,0,1,2.757.641L3.921,1.806a1.063,1.063,0,0,1,.31.748v.93L7.249,6.5a.529.529,0,0,1-.366.911Z" fill="#526484"/>
    </g>
  </g>
</svg>
