<svg xmlns="http://www.w3.org/2000/svg" width="11.267" height="14.375" viewBox="0 0 11.267 14.375">
  <g id="Icons_16px_Active_Dashboard_Copy" data-name="Icons/16px/Active/Dashboard Copy" transform="translate(-4.366 -3.125)">
    <g id="icons8-knight" transform="translate(4.366 3.125)">
      <path id="Shape" d="M10.642,14.375H.626a.625.625,0,1,1,0-1.251H10.642a.625.625,0,1,1,0,1.251Zm-.633-2.5H1.259A2.237,2.237,0,0,1,2.571,9.663a.625.625,0,0,1,.554-.913h.008a8.158,8.158,0,0,0-.313-2.181A8.064,8.064,0,0,1,2.51,4.375,3.15,3.15,0,0,1,4.384,1.25,1.256,1.256,0,0,1,5.634,0V1.25a4.718,4.718,0,0,1,2.258.809A2.645,2.645,0,0,0,8.915,2.5a.469.469,0,0,1,.469.469V3.75a.626.626,0,0,1-.625.625H7.107A2.223,2.223,0,0,1,5.636,5l.006,0a5.615,5.615,0,0,1,1.242.938,4,4,0,0,1,1.25,2.81h.008a.621.621,0,0,1,.532.3.628.628,0,0,1,.023.616,2.238,2.238,0,0,1,1.312,2.211Z" fill="#526484"/>
    </g>
  </g>
</svg>
