<svg xmlns="http://www.w3.org/2000/svg" width="15" height="13.75" viewBox="0 0 15 13.75">
  <g id="Icons_16px_Active_Dashboard_Copy_3" data-name="Icons/16px/Active/Dashboard Copy 3" transform="translate(-2.5 -3.125)">
    <g id="icons8-mission" transform="translate(2.5 3.125)">
      <path id="Shape" d="M13.762,13.75H1.237l0-.007-.033,0a.368.368,0,0,1-.046,0A1.151,1.151,0,0,1,0,12.6a1.136,1.136,0,0,1,.327-.8L6.585,4.466a1.163,1.163,0,0,1,.338-.293V.573A.576.576,0,0,1,7.5,0a.568.568,0,0,1,.212.043l3.039,1.113a.286.286,0,0,1,.028.543l-2.7,1.026V4.173a1.17,1.17,0,0,1,.338.293l6.3,7.39A1.137,1.137,0,0,1,15,12.6a1.151,1.151,0,0,1-1.154,1.146.366.366,0,0,1-.046,0l-.032,0,0,.007ZM8.654,8.021h0l2.307,1.2L7.535,5.207h-.07L4.578,8.59,6.923,7.448,7.5,8.594l1.154-.573Z" transform="translate(0 0)" fill="#526484"/>
    </g>
  </g>
</svg>
