<svg xmlns="http://www.w3.org/2000/svg" width="29.84" height="29.84" viewBox="0 0 29.84 29.84">
  <path id="icons8_increase" d="M29.948,3V5.595H26.056a1.3,1.3,0,0,0-1.039.519l-3.5,4.67H18.271a1.3,1.3,0,0,0-.917.38l-3.512,3.512H10.487a1.3,1.3,0,0,0-.72.218L6.2,17.271H5.3a1.3,1.3,0,1,0,0,2.595h1.3a1.3,1.3,0,0,0,.72-.218l3.565-2.377h3.5a1.3,1.3,0,0,0,.917-.38l3.512-3.512h3.355A1.3,1.3,0,0,0,23.2,12.86l3.5-4.67h3.243v2.595L33.84,6.892Zm-1.3,10.379a1.3,1.3,0,0,0-1.3,1.3V32.84h5.19V14.677a1.3,1.3,0,0,0-1.3-1.3Zm-7.784,3.892a1.3,1.3,0,0,0-1.3,1.3V32.84h5.19V18.569a1.3,1.3,0,0,0-1.3-1.3Zm-7.784,3.892a1.3,1.3,0,0,0-1.3,1.3V32.84h5.19V22.461a1.3,1.3,0,0,0-1.3-1.3ZM5.3,25.056a1.3,1.3,0,0,0-1.3,1.3V32.84H9.19V26.353a1.3,1.3,0,0,0-1.3-1.3Z" transform="translate(-4 -3)" fill="#fff"/>
</svg>
