<svg xmlns="http://www.w3.org/2000/svg" width="57.7" height="76.731" viewBox="0 0 57.7 76.731">
  <g id="icons8_Lock_2" transform="translate(-4 -1)">
    <path id="Контур_5" data-name="Контур 5" d="M43.062,34.456V20.031A17.856,17.856,0,0,0,25.031,2,17.856,17.856,0,0,0,7,20.031V34.456" transform="translate(7.819)" fill="none" stroke="#fff" stroke-width="2"/>
    <path id="Контур_6" data-name="Контур 6" d="M32.85,7A28.85,28.85,0,1,0,61.7,35.85,28.851,28.851,0,0,0,32.85,7Zm3.606,31.45v8.219a3.608,3.608,0,0,1-3.606,3.606h0a3.608,3.608,0,0,1-3.606-3.606V38.45a7.213,7.213,0,1,1,7.212,0Z" transform="translate(0 13.031)" fill="#fff"/>
  </g>
</svg>
