<svg xmlns="http://www.w3.org/2000/svg" width="15.633" height="15" viewBox="0 0 15.633 15">
  <g id="Icons_Dark_Profile_Copy_5" data-name="Icons/Dark/Profile Copy 5" transform="translate(-1.875 -2.5)">
    <g id="icons8-sign_out" transform="translate(1.875 2.5)">
      <path id="Shape" d="M7.5,15a7.5,7.5,0,0,1,0-15,7.411,7.411,0,0,1,4.283,1.363.625.625,0,0,1-.1,1.078.624.624,0,0,1-.623-.055A6.165,6.165,0,0,0,7.5,1.25a6.25,6.25,0,1,0,0,12.5,6.164,6.164,0,0,0,3.565-1.136.625.625,0,1,1,.719,1.023A7.411,7.411,0,0,1,7.5,15Zm4.991-4.366a.625.625,0,0,1-.433-1.076l1.433-1.433H6.865a.625.625,0,1,1,0-1.25h6.624L12.058,5.442a.625.625,0,1,1,.884-.884L15.385,7a.625.625,0,0,1,0,1l-2.445,2.445A.628.628,0,0,1,12.491,10.634Z" fill="#526484"/>
    </g>
  </g>
</svg>
