<svg id="Icons_Dark_Profile_Copy_4" data-name="Icons/Dark/Profile Copy 4" xmlns="http://www.w3.org/2000/svg" width="20" height="20" viewBox="0 0 20 20">
  <g id="icons8-safety_float" transform="translate(2.62 2.621)">
    <path id="Shape" d="M8.637,14.759h0a.63.63,0,0,1-.611-.537c-.232.022-.444.033-.646.033s-.418-.011-.646-.033a.617.617,0,0,1-.724.527,7.5,7.5,0,0,1-6-6,.6.6,0,0,1,.1-.463.645.645,0,0,1,.425-.262s.132-.008.312-.013c.158,0,.308-.009.312-.013a.619.619,0,0,0,0-1.238S1,6.751.842,6.747c-.181-.005-.3-.009-.3-.013a.646.646,0,0,1-.425-.262.6.6,0,0,1-.1-.463,7.5,7.5,0,0,1,6-6,.616.616,0,0,1,.725.527h.021v.593a.625.625,0,1,0,1.25,0V.536h.021A.629.629,0,0,1,8.637,0,.622.622,0,0,1,8.75.011a7.5,7.5,0,0,1,6,6,.6.6,0,0,1-.1.463.645.645,0,0,1-.426.262c.022.232.033.444.033.646s-.011.415-.033.645a.645.645,0,0,1,.425.261.606.606,0,0,1,.1.464,7.5,7.5,0,0,1-6,6A.623.623,0,0,1,8.637,14.759Zm-5.582-8a3.926,3.926,0,0,0,0,1.25h.138a.613.613,0,0,1,.592.426,3.774,3.774,0,0,0,2.544,2.544.61.61,0,0,1,.426.591v.814a.625.625,0,1,0,1.25,0v-.813a.611.611,0,0,1,.426-.591,3.774,3.774,0,0,0,2.544-2.544A.61.61,0,0,1,11.566,8h.814a.625.625,0,1,0,0-1.25h-.813a.611.611,0,0,1-.591-.426A3.774,3.774,0,0,0,8.431,3.783.61.61,0,0,1,8,3.193V3.054a3.926,3.926,0,0,0-1.25,0v.138a.611.611,0,0,1-.426.591A3.774,3.774,0,0,0,3.784,6.328a.611.611,0,0,1-.591.426Z" transform="translate(0 0)" fill="#526484"/>
  </g>
</svg>
