<svg xmlns="http://www.w3.org/2000/svg" width="20" height="20" viewBox="0 0 20 20">
  <g id="Сгруппировать_98" data-name="Сгруппировать 98" transform="translate(-25 -325)">
    <rect id="Прямоугольник_20" data-name="Прямоугольник 20" width="20" height="20" transform="translate(25 325)" fill="none"/>
    <path id="Shape" d="M6.611,12.848a.5.5,0,0,1-.509-.494v-.085a.489.489,0,0,0-.41-.483c-.114-.018-.23-.04-.346-.066a.486.486,0,0,0-.1-.011.509.509,0,0,0-.462.307l-.033.077a.508.508,0,0,1-.47.305.518.518,0,0,1-.194-.038.491.491,0,0,1-.275-.647l.034-.078a.483.483,0,0,0-.189-.6c-.1-.058-.191-.12-.293-.19a.484.484,0,0,0-.277-.085.526.526,0,0,0-.363.147l-.063.06a.519.519,0,0,1-.719,0,.484.484,0,0,1,0-.7L2,10.208a.48.48,0,0,0,.063-.624C2,9.5,1.933,9.4,1.867,9.3a.492.492,0,0,0-.419-.221.527.527,0,0,0-.2.039l-.081.033a.518.518,0,0,1-.195.038A.507.507,0,0,1,.5,8.883.478.478,0,0,1,.5,8.5a.5.5,0,0,1,.275-.267L.858,8.2a.481.481,0,0,0,.3-.551c-.025-.107-.047-.217-.067-.336a.5.5,0,0,0-.5-.4H.509a.494.494,0,1,1,0-.988H.6a.5.5,0,0,0,.5-.4c.018-.111.041-.224.068-.336a.481.481,0,0,0-.3-.551L.778,4.611A.491.491,0,0,1,.5,3.966a.509.509,0,0,1,.471-.305.52.52,0,0,1,.194.038l.08.033a.527.527,0,0,0,.2.038.493.493,0,0,0,.42-.222c.058-.092.122-.185.195-.284A.474.474,0,0,0,2,2.64l-.061-.06a.485.485,0,0,1,0-.7.518.518,0,0,1,.719,0l.061.06a.526.526,0,0,0,.363.147A.486.486,0,0,0,3.359,2c.1-.07.2-.132.292-.189a.48.48,0,0,0,.188-.6l-.034-.079a.478.478,0,0,1,0-.379A.5.5,0,0,1,4.08.489.518.518,0,0,1,4.275.451a.507.507,0,0,1,.47.305l.034.077a.509.509,0,0,0,.462.306.489.489,0,0,0,.105-.012c.109-.024.222-.046.345-.065A.492.492,0,0,0,6.1.579V.494a.509.509,0,0,1,1.017,0V.579a.491.491,0,0,0,.41.484c.114.018.23.04.345.066a.487.487,0,0,0,.1.011A.51.51,0,0,0,8.443.833L8.476.756A.509.509,0,0,1,8.947.451a.52.52,0,0,1,.194.038.491.491,0,0,1,.275.647l-.034.078a.483.483,0,0,0,.188.6c.1.058.195.122.293.19a.484.484,0,0,0,.277.085.527.527,0,0,0,.364-.147l.062-.061a.518.518,0,0,1,.719,0,.484.484,0,0,1,0,.7l-.063.06a.478.478,0,0,0-.063.623c.065.089.128.182.195.285a.493.493,0,0,0,.42.221.528.528,0,0,0,.2-.038l.082-.033a.518.518,0,0,1,.195-.038.508.508,0,0,1,.47.3.479.479,0,0,1,0,.378.5.5,0,0,1-.275.267l-.079.033a.48.48,0,0,0-.3.551c.025.106.047.219.066.336a.5.5,0,0,0,.5.4h.088a.494.494,0,1,1,0,.988h-.088a.5.5,0,0,0-.5.4c-.018.111-.041.224-.068.336a.482.482,0,0,0,.3.551l.079.032a.491.491,0,0,1,.275.646.509.509,0,0,1-.471.305.52.52,0,0,1-.194-.038l-.08-.033a.526.526,0,0,0-.2-.038.493.493,0,0,0-.42.221c-.06.094-.125.189-.2.285a.473.473,0,0,0,.064.623l.061.061a.484.484,0,0,1,0,.7.518.518,0,0,1-.719,0l-.061-.061a.525.525,0,0,0-.363-.147.487.487,0,0,0-.279.086c-.093.064-.189.126-.293.189a.482.482,0,0,0-.188.6l.034.079a.478.478,0,0,1,0,.378.5.5,0,0,1-.275.267.52.52,0,0,1-.195.038.507.507,0,0,1-.47-.305l-.034-.077a.508.508,0,0,0-.461-.306.487.487,0,0,0-.106.012c-.11.024-.226.046-.346.065a.493.493,0,0,0-.411.485v.085A.5.5,0,0,1,6.611,12.848ZM8.064,7.8h0a2.045,2.045,0,0,1-.95.528.459.459,0,0,1,0,.068v1.943A4.058,4.058,0,0,0,9.849,8.811L8.119,7.84A.524.524,0,0,1,8.064,7.8Zm-2.906,0h0A.526.526,0,0,1,5.1,7.84l-1.73.971A4.058,4.058,0,0,0,6.1,10.343V8.4a.508.508,0,0,1,0-.068A2.045,2.045,0,0,1,5.158,7.8Zm5.2-2.913-1.734.973a.528.528,0,0,1-.064.034,1.9,1.9,0,0,1,.082.527,1.882,1.882,0,0,1-.083.529.488.488,0,0,1,.066.032l1.734.973a3.859,3.859,0,0,0,0-3.067Zm-7.5,0a3.859,3.859,0,0,0,0,3.067l1.734-.973a.476.476,0,0,1,.065-.032,1.725,1.725,0,0,1,0-1.057.519.519,0,0,1-.064-.033Zm3.75.792a.741.741,0,1,0,.763.741A.753.753,0,0,0,6.611,5.683ZM7.12,2.5V4.447a.517.517,0,0,1,0,.069,2.046,2.046,0,0,1,.947.526.527.527,0,0,1,.056-.034l1.73-.971A4.06,4.06,0,0,0,7.12,2.5ZM6.1,2.5A4.06,4.06,0,0,0,3.373,4.037l1.73.971a.5.5,0,0,1,.057.034,2.04,2.04,0,0,1,.947-.526.508.508,0,0,1,0-.069Z" transform="translate(28.167 328.348)" fill="#525f7f"/>
  </g>
</svg>
