<svg xmlns="http://www.w3.org/2000/svg" width="32.183" height="27.232" viewBox="0 0 32.183 27.232">
  <path id="icons8_trust_1" d="M20.905,4a4.052,4.052,0,0,0-4.052,4.052c0,3.883,4.485,7.586,6.6,9.25q.033.029.068.056l.012.01a1.238,1.238,0,0,0,1.489,0l.017-.014.007,0,.017-.014c2.1-1.651,6.641-5.378,6.641-9.281A4.052,4.052,0,0,0,27.655,4,4.411,4.411,0,0,0,24.28,5.857,4.411,4.411,0,0,0,20.905,4ZM9.427,16.378a3.713,3.713,0,0,0-1.383.268L2,18.854v9.9l5.224-2.27a2.491,2.491,0,0,1,1.936-.022l11.22,4.584h0a1.833,1.833,0,0,0,1.714-.061h.007L33.23,24.808l0,0a1.854,1.854,0,0,0-1.69-3.3v0l-8.5,3.537H21.186a1.856,1.856,0,0,0,.575-3.622v0L11,16.726h-.014a3.713,3.713,0,0,0-1.559-.348Z" transform="translate(-2 -4)" fill="#fff"/>
</svg>
