<svg xmlns="http://www.w3.org/2000/svg" width="20" height="20" viewBox="0 0 20 20">
  <g id="Сгруппировать_100" data-name="Сгруппировать 100" transform="translate(-25 -271)">
    <g id="Сгруппировать_99" data-name="Сгруппировать 99">
      <g id="Сгруппировать_97" data-name="Сгруппировать 97" transform="translate(5 62)">
        <rect id="Прямоугольник_20" data-name="Прямоугольник 20" width="20" height="20" transform="translate(20 209)" fill="none"/>
      </g>
    </g>
    <path id="icons8_member_1" d="M4.752,4a2.64,2.64,0,0,0-2.64,2.64v.528a2.64,2.64,0,1,0,5.28,0V6.64A2.64,2.64,0,0,0,4.752,4Zm6.336,0a2.64,2.64,0,0,0-2.64,2.64v.528a2.64,2.64,0,1,0,5.28,0V6.64A2.64,2.64,0,0,0,11.088,4ZM4.752,5.056A1.586,1.586,0,0,1,6.336,6.64v.528a1.584,1.584,0,1,1-3.168,0V6.64A1.586,1.586,0,0,1,4.752,5.056Zm0,5.808c-1.731,0-3.951.99-4.59,2.067C-.234,13.6.142,14.56.79,14.56H15.05c.648,0,1.023-.964.628-1.629-.639-1.077-2.86-2.067-4.591-2.067a7.049,7.049,0,0,0-3.168.865A7.062,7.062,0,0,0,4.751,10.864Zm0,1.056a5.232,5.232,0,0,1,3.684,1.549.1.1,0,0,1,.01.035H1.058a.11.11,0,0,1,.011-.035A5.229,5.229,0,0,1,4.751,11.92Z" transform="translate(27 272.417)" fill="#525f7f"/>
  </g>
</svg>
