<svg id="Icons_Dark_Profile_Copy" data-name="Icons/Dark/Profile Copy" xmlns="http://www.w3.org/2000/svg" width="20" height="20" viewBox="0 0 20 20">
  <g id="icons8-user" transform="translate(3.123 3.125)">
    <path id="Shape" d="M12.608,14.375H1.144A1.136,1.136,0,0,1,.12,13.736a1.1,1.1,0,0,1,.115-1.18C1.125,11.4,4.286,10,6.876,10s5.751,1.4,6.641,2.556a1.1,1.1,0,0,1,.115,1.18A1.135,1.135,0,0,1,12.608,14.375ZM6.877,8.125a3.754,3.754,0,0,1-3.75-3.75V3.75a3.75,3.75,0,1,1,7.5,0v.625A3.754,3.754,0,0,1,6.877,8.125Z" transform="translate(0)" fill="#526484"/>
  </g>
</svg>
